<svg width="39" height="39" viewBox="0 0 39 39" fill="none" xmlns="http://www.w3.org/2000/svg">
<g filter="url(#filter0_i_94_665)">
<path d="M0 8.12906C0 3.6395 3.6395 0 8.12906 0H30.484C34.9735 0 38.613 3.6395 38.613 8.12906V30.484C38.613 34.9735 34.9735 38.613 30.484 38.613H8.12906C3.6395 38.613 0 34.9735 0 30.484V8.12906Z" fill="url(#paint0_linear_94_665)" style=""/>
</g>
<path d="M1.91943 8.12913C1.91943 4.69961 4.69961 1.91943 8.12913 1.91943H30.4841C33.9136 1.91943 36.6937 4.69961 36.6937 8.12913V30.0324C36.6937 33.462 33.9136 36.2421 30.484 36.2421H8.12913C4.69961 36.2421 1.91943 33.462 1.91943 30.0324V8.12913Z" fill="url(#paint1_linear_94_665)" style=""/>
<g filter="url(#filter1_di_94_665)">
<path d="M11.5161 29.0265V9.48389H19.6652C21.1284 9.48389 22.353 9.69064 23.339 10.1041C24.3314 10.5176 25.0757 11.0965 25.5719 11.8408C26.0745 12.5851 26.3257 13.4471 26.3257 14.4268C26.3257 15.1711 26.1699 15.8359 25.8582 16.4211C25.5464 17 25.117 17.4803 24.57 17.862C24.0229 18.2437 23.3899 18.5109 22.671 18.6636V18.8544C23.4599 18.8926 24.1883 19.1057 24.8562 19.4937C25.5305 19.8818 26.0713 20.4225 26.4784 21.1159C26.8855 21.803 27.0891 22.6172 27.0891 23.5588C27.0891 24.6084 26.8219 25.5467 26.2876 26.3737C25.7532 27.1944 24.9803 27.8432 23.9688 28.3203C22.9573 28.7911 21.7295 29.0265 20.2855 29.0265H11.5161ZM16.2395 25.2191H19.1595C20.1837 25.2191 20.9375 25.0251 21.421 24.637C21.9108 24.249 22.1558 23.7082 22.1558 23.0148C22.1558 22.5123 22.0381 22.0797 21.8027 21.7171C21.5673 21.3481 21.2333 21.065 20.8008 20.8678C20.3682 20.6643 19.8497 20.5625 19.2454 20.5625H16.2395V25.2191ZM16.2395 17.5185H18.8541C19.3694 17.5185 19.8274 17.4326 20.2282 17.2608C20.629 17.0891 20.9407 16.841 21.1634 16.5165C21.3924 16.1921 21.5069 15.8009 21.5069 15.3428C21.5069 14.6876 21.2747 14.1723 20.8103 13.797C20.3459 13.4217 19.7193 13.234 18.9305 13.234H16.2395V17.5185Z" fill="white" style="fill:white;fill-opacity:1;"/>
</g>
<defs>
<filter id="filter0_i_94_665" x="0" y="0" width="38.6133" height="38.613" filterUnits="userSpaceOnUse" color-interpolation-filters="sRGB">
<feFlood flood-opacity="0" result="BackgroundImageFix"/>
<feBlend mode="normal" in="SourceGraphic" in2="BackgroundImageFix" result="shape"/>
<feColorMatrix in="SourceAlpha" type="matrix" values="0 0 0 0 0 0 0 0 0 0 0 0 0 0 0 0 0 0 127 0" result="hardAlpha"/>
<feMorphology radius="3" operator="erode" in="SourceAlpha" result="effect1_innerShadow_94_665"/>
<feOffset/>
<feGaussianBlur stdDeviation="4.4"/>
<feComposite in2="hardAlpha" operator="arithmetic" k2="-1" k3="1"/>
<feColorMatrix type="matrix" values="0 0 0 0 0.771672 0 0 0 0 0.146041 0 0 0 0 0.14187 0 0 0 1 0"/>
<feBlend mode="normal" in2="shape" result="effect1_innerShadow_94_665"/>
</filter>
<filter id="filter1_di_94_665" x="9.51611" y="3.48389" width="19.5732" height="26.5425" filterUnits="userSpaceOnUse" color-interpolation-filters="sRGB">
<feFlood flood-opacity="0" result="BackgroundImageFix"/>
<feColorMatrix in="SourceAlpha" type="matrix" values="0 0 0 0 0 0 0 0 0 0 0 0 0 0 0 0 0 0 127 0" result="hardAlpha"/>
<feOffset dy="-4"/>
<feGaussianBlur stdDeviation="1"/>
<feComposite in2="hardAlpha" operator="out"/>
<feColorMatrix type="matrix" values="0 0 0 0 1 0 0 0 0 1 0 0 0 0 1 0 0 0 0.25 0"/>
<feBlend mode="normal" in2="BackgroundImageFix" result="effect1_dropShadow_94_665"/>
<feBlend mode="normal" in="SourceGraphic" in2="effect1_dropShadow_94_665" result="shape"/>
<feColorMatrix in="SourceAlpha" type="matrix" values="0 0 0 0 0 0 0 0 0 0 0 0 0 0 0 0 0 0 127 0" result="hardAlpha"/>
<feOffset dy="1"/>
<feGaussianBlur stdDeviation="1"/>
<feComposite in2="hardAlpha" operator="arithmetic" k2="-1" k3="1"/>
<feColorMatrix type="matrix" values="0 0 0 0 0 0 0 0 0 0 0 0 0 0 0 0 0 0 0.5 0"/>
<feBlend mode="normal" in2="shape" result="effect2_innerShadow_94_665"/>
</filter>
<linearGradient id="paint0_linear_94_665" x1="19.3065" y1="0" x2="19.3065" y2="38.613" gradientUnits="userSpaceOnUse">
<stop stop-color="#FB2522" style="stop-color:#FB2522;stop-color:color(display-p3 0.9843 0.1451 0.1333);stop-opacity:1;"/>
<stop offset="1" stop-color="#E02A20" style="stop-color:#E02A20;stop-color:color(display-p3 0.8784 0.1647 0.1255);stop-opacity:1;"/>
</linearGradient>
<linearGradient id="paint1_linear_94_665" x1="19.3066" y1="-2.59671" x2="19.3066" y2="36.2421" gradientUnits="userSpaceOnUse">
<stop stop-color="white" style="stop-color:white;stop-opacity:1;"/>
<stop offset="0.30279" stop-color="white" stop-opacity="0" style="stop-color:none;stop-opacity:0;"/>
</linearGradient>
</defs>
</svg>
